<mxfile host="app.diagrams.net" agent="Mozilla/5.0 (X11; Ubuntu; Linux x86_64; rv:133.0) Gecko/20100101 Firefox/133.0" version="27.0.2">
  <diagram name="Page-1" id="rrkoi3hn6Rtk7h8Mjv4J">
    <mxGraphModel grid="1" page="1" gridSize="10" guides="1" tooltips="1" connect="1" arrows="1" fold="1" pageScale="1" pageWidth="850" pageHeight="1100" math="0" shadow="0">
      <root>
        <mxCell id="0" />
        <mxCell id="1" parent="0" />
        <mxCell id="nsvLtbpFKqeht-PFAIL7-8" value="" style="swimlane;startSize=0;" vertex="1" parent="1">
          <mxGeometry x="270" y="535" width="200" height="150" as="geometry">
            <mxRectangle x="330" y="470" width="50" height="40" as="alternateBounds" />
          </mxGeometry>
        </mxCell>
        <mxCell id="nsvLtbpFKqeht-PFAIL7-11" value="&lt;div&gt;Instruction&lt;/div&gt;&lt;div&gt;L1 cache&lt;/div&gt;&lt;div&gt;4x4 KB&lt;br&gt;&lt;/div&gt;" style="rounded=0;whiteSpace=wrap;html=1;" vertex="1" parent="nsvLtbpFKqeht-PFAIL7-8">
          <mxGeometry x="22.5" y="90" width="70" height="50" as="geometry" />
        </mxCell>
        <mxCell id="nsvLtbpFKqeht-PFAIL7-12" value="&lt;div&gt;Data&lt;/div&gt;&lt;div&gt;L1 cache&lt;/div&gt;&lt;div&gt;4x4 KB&lt;br&gt;&lt;/div&gt;" style="rounded=0;whiteSpace=wrap;html=1;" vertex="1" parent="nsvLtbpFKqeht-PFAIL7-8">
          <mxGeometry x="107.5" y="90" width="70" height="50" as="geometry" />
        </mxCell>
        <mxCell id="nsvLtbpFKqeht-PFAIL7-13" value="&lt;div&gt;&lt;font style=&quot;font-size: 18px;&quot;&gt;VexiiRiscv&lt;/font&gt;&lt;/div&gt;&lt;div&gt;rv32imafdcsu&lt;br&gt;&lt;/div&gt;" style="text;html=1;align=center;verticalAlign=middle;whiteSpace=wrap;rounded=0;" vertex="1" parent="nsvLtbpFKqeht-PFAIL7-8">
          <mxGeometry x="47.5" y="30" width="100" height="40" as="geometry" />
        </mxCell>
        <mxCell id="nsvLtbpFKqeht-PFAIL7-14" value="&lt;span style=&quot;color: rgb(77, 77, 77);&quot;&gt;CPU core&lt;/span&gt;" style="text;html=1;align=center;verticalAlign=middle;whiteSpace=wrap;rounded=0;" vertex="1" parent="nsvLtbpFKqeht-PFAIL7-8">
          <mxGeometry x="67.5" width="60" height="30" as="geometry" />
        </mxCell>
        <mxCell id="OZXpx4kWtVFie0x7K6FJ-49" value="&lt;font style=&quot;font-size: 8px; color: rgb(102, 102, 102);&quot;&gt;https://github.com/SpinalHDL/VexiiRiscv/&lt;/font&gt;" style="text;html=1;align=center;verticalAlign=middle;whiteSpace=wrap;rounded=0;" vertex="1" parent="nsvLtbpFKqeht-PFAIL7-8">
          <mxGeometry x="25" y="70" width="152.5" height="10" as="geometry" />
        </mxCell>
        <mxCell id="nsvLtbpFKqeht-PFAIL7-15" value="&lt;div style=&quot;line-height: 100%;&quot;&gt;&lt;div&gt;CLINT&lt;/div&gt;&lt;div&gt;&lt;font style=&quot;font-size: 8px; color: rgb(102, 102, 102);&quot;&gt;(core level interrupt&lt;/font&gt;&lt;/div&gt;&lt;div&gt;&lt;font style=&quot;font-size: 8px; color: rgb(102, 102, 102);&quot;&gt;controller)&lt;/font&gt;&lt;br&gt;&lt;/div&gt;&lt;div&gt;&lt;/div&gt;&lt;/div&gt;" style="rounded=0;whiteSpace=wrap;html=1;" vertex="1" parent="1">
          <mxGeometry x="90" y="595" width="90" height="90" as="geometry" />
        </mxCell>
        <mxCell id="nsvLtbpFKqeht-PFAIL7-16" value="&lt;div style=&quot;line-height: 100%;&quot;&gt;&lt;div&gt;PLIC&lt;/div&gt;&lt;div&gt;&lt;font style=&quot;font-size: 8px; color: rgb(102, 102, 102);&quot;&gt;(platform level&lt;/font&gt;&lt;/div&gt;&lt;div&gt;&lt;font style=&quot;font-size: 8px; color: rgb(102, 102, 102);&quot;&gt;interrupt &lt;/font&gt;&lt;font style=&quot;font-size: 8px; color: rgb(102, 102, 102);&quot;&gt;controller)&lt;/font&gt;&lt;br&gt;&lt;/div&gt;&lt;div&gt;&lt;/div&gt;&lt;/div&gt;" style="rounded=0;whiteSpace=wrap;html=1;" vertex="1" parent="1">
          <mxGeometry x="90" y="465" width="90" height="60" as="geometry" />
        </mxCell>
        <mxCell id="nsvLtbpFKqeht-PFAIL7-17" value="" style="endArrow=classic;html=1;rounded=0;entryX=0;entryY=0.8;entryDx=0;entryDy=0;entryPerimeter=0;" edge="1" parent="1">
          <mxGeometry width="50" height="50" relative="1" as="geometry">
            <mxPoint x="180" y="635" as="sourcePoint" />
            <mxPoint x="270" y="635" as="targetPoint" />
          </mxGeometry>
        </mxCell>
        <mxCell id="nsvLtbpFKqeht-PFAIL7-18" value="&lt;font style=&quot;font-size: 8px; color: rgb(102, 102, 102);&quot;&gt;software interrupt&lt;br&gt;&lt;/font&gt;" style="text;html=1;align=center;verticalAlign=middle;whiteSpace=wrap;rounded=0;" vertex="1" parent="1">
          <mxGeometry x="185" y="635" width="80" height="10" as="geometry" />
        </mxCell>
        <mxCell id="nsvLtbpFKqeht-PFAIL7-23" value="" style="endArrow=classic;html=1;rounded=0;entryX=0;entryY=0.8;entryDx=0;entryDy=0;entryPerimeter=0;" edge="1" parent="1">
          <mxGeometry width="50" height="50" relative="1" as="geometry">
            <mxPoint x="180" y="655" as="sourcePoint" />
            <mxPoint x="270" y="655" as="targetPoint" />
          </mxGeometry>
        </mxCell>
        <mxCell id="nsvLtbpFKqeht-PFAIL7-24" value="&lt;font style=&quot;font-size: 8px; color: rgb(102, 102, 102);&quot;&gt;timer interrupt&lt;br&gt;&lt;/font&gt;" style="text;html=1;align=center;verticalAlign=middle;whiteSpace=wrap;rounded=0;" vertex="1" parent="1">
          <mxGeometry x="190" y="655" width="60" height="10" as="geometry" />
        </mxCell>
        <mxCell id="nsvLtbpFKqeht-PFAIL7-25" value="" style="endArrow=classic;html=1;rounded=0;entryX=0;entryY=0.8;entryDx=0;entryDy=0;entryPerimeter=0;" edge="1" parent="1">
          <mxGeometry width="50" height="50" relative="1" as="geometry">
            <mxPoint x="180" y="615" as="sourcePoint" />
            <mxPoint x="270" y="615" as="targetPoint" />
          </mxGeometry>
        </mxCell>
        <mxCell id="nsvLtbpFKqeht-PFAIL7-26" value="&lt;font style=&quot;font-size: 8px; color: rgb(102, 102, 102);&quot;&gt;external interrupt&lt;br&gt;&lt;/font&gt;" style="text;html=1;align=center;verticalAlign=middle;whiteSpace=wrap;rounded=0;" vertex="1" parent="1">
          <mxGeometry x="190" y="615" width="70" height="10" as="geometry" />
        </mxCell>
        <mxCell id="nsvLtbpFKqeht-PFAIL7-28" value="" style="endArrow=classic;html=1;rounded=0;entryX=0;entryY=0.8;entryDx=0;entryDy=0;entryPerimeter=0;" edge="1" parent="1">
          <mxGeometry width="50" height="50" relative="1" as="geometry">
            <mxPoint x="180" y="675" as="sourcePoint" />
            <mxPoint x="270" y="675" as="targetPoint" />
          </mxGeometry>
        </mxCell>
        <mxCell id="nsvLtbpFKqeht-PFAIL7-29" value="&lt;font style=&quot;font-size: 8px; color: rgb(102, 102, 102);&quot;&gt;rdtime&lt;br&gt;&lt;/font&gt;" style="text;html=1;align=center;verticalAlign=middle;whiteSpace=wrap;rounded=0;" vertex="1" parent="1">
          <mxGeometry x="190" y="675" width="60" height="10" as="geometry" />
        </mxCell>
        <mxCell id="nsvLtbpFKqeht-PFAIL7-30" value="" style="shape=flexArrow;endArrow=classic;html=1;rounded=0;entryX=0.3;entryY=1;entryDx=0;entryDy=0;entryPerimeter=0;exitX=0.138;exitY=-0.017;exitDx=0;exitDy=0;exitPerimeter=0;" edge="1" parent="1" source="nsvLtbpFKqeht-PFAIL7-31" target="nsvLtbpFKqeht-PFAIL7-8">
          <mxGeometry width="50" height="50" relative="1" as="geometry">
            <mxPoint x="330" y="755" as="sourcePoint" />
            <mxPoint x="390" y="615" as="targetPoint" />
          </mxGeometry>
        </mxCell>
        <mxCell id="OZXpx4kWtVFie0x7K6FJ-74" style="edgeStyle=orthogonalEdgeStyle;rounded=0;orthogonalLoop=1;jettySize=auto;html=1;exitX=0;exitY=0.5;exitDx=0;exitDy=0;entryX=0.5;entryY=0;entryDx=0;entryDy=0;shape=flexArrow;startArrow=block;" edge="1" parent="1" source="nsvLtbpFKqeht-PFAIL7-31" target="OZXpx4kWtVFie0x7K6FJ-73">
          <mxGeometry relative="1" as="geometry" />
        </mxCell>
        <mxCell id="nsvLtbpFKqeht-PFAIL7-31" value="L2 Cache 4x4 KB" style="rounded=0;whiteSpace=wrap;html=1;" vertex="1" parent="1">
          <mxGeometry x="270" y="785" width="430" height="40" as="geometry" />
        </mxCell>
        <mxCell id="nsvLtbpFKqeht-PFAIL7-32" value="" style="shape=flexArrow;endArrow=classic;startArrow=classic;html=1;rounded=0;entryX=0.7;entryY=1;entryDx=0;entryDy=0;entryPerimeter=0;exitX=0.326;exitY=0.014;exitDx=0;exitDy=0;exitPerimeter=0;" edge="1" parent="1" source="nsvLtbpFKqeht-PFAIL7-31" target="nsvLtbpFKqeht-PFAIL7-8">
          <mxGeometry width="100" height="100" relative="1" as="geometry">
            <mxPoint x="320" y="745" as="sourcePoint" />
            <mxPoint x="420" y="645" as="targetPoint" />
          </mxGeometry>
        </mxCell>
        <mxCell id="nsvLtbpFKqeht-PFAIL7-33" value="&lt;div&gt;Bootloader ROM&lt;/div&gt;512 bytes" style="rounded=0;whiteSpace=wrap;html=1;" vertex="1" parent="1">
          <mxGeometry x="160" y="715" width="110" height="50" as="geometry" />
        </mxCell>
        <mxCell id="nsvLtbpFKqeht-PFAIL7-34" value="" style="endArrow=classic;html=1;rounded=0;shape=flexArrow;endSize=6;shadow=0;flowAnimation=0;strokeWidth=1;" edge="1" parent="1">
          <mxGeometry width="50" height="50" relative="1" as="geometry">
            <mxPoint x="270" y="739.8" as="sourcePoint" />
            <mxPoint x="330" y="725" as="targetPoint" />
            <Array as="points">
              <mxPoint x="300" y="740" />
            </Array>
          </mxGeometry>
        </mxCell>
        <mxCell id="nsvLtbpFKqeht-PFAIL7-35" value="&lt;div style=&quot;line-height: 90%;&quot;&gt;&lt;div&gt;&lt;span style=&quot;color: rgb(102, 102, 102);&quot;&gt;&lt;font style=&quot;font-size: 8px; line-height: 90%;&quot;&gt;iBus&lt;/font&gt;&lt;/span&gt;&lt;/div&gt;&lt;div&gt;&lt;span style=&quot;color: rgb(102, 102, 102);&quot;&gt;&lt;font style=&quot;font-size: 8px; line-height: 90%;&quot;&gt;(tilelink, 64 bit)&lt;/font&gt;&lt;/span&gt;&lt;/div&gt; &lt;/div&gt;" style="text;html=1;align=center;verticalAlign=middle;whiteSpace=wrap;rounded=0;rotation=90;" vertex="1" parent="1">
          <mxGeometry x="320" y="725" width="60" height="20" as="geometry" />
        </mxCell>
        <mxCell id="nsvLtbpFKqeht-PFAIL7-36" value="&lt;div style=&quot;line-height: 90%;&quot;&gt;&lt;div&gt;&lt;span style=&quot;color: rgb(102, 102, 102);&quot;&gt;&lt;font style=&quot;font-size: 8px; line-height: 90%;&quot;&gt;lsuL1Bus&lt;/font&gt;&lt;/span&gt;&lt;/div&gt;&lt;div&gt;&lt;span style=&quot;color: rgb(102, 102, 102);&quot;&gt;&lt;font style=&quot;font-size: 8px; line-height: 90%;&quot;&gt;(tilelink, 64 bit)&lt;/font&gt;&lt;/span&gt;&lt;/div&gt;&lt;/div&gt;" style="text;html=1;align=center;verticalAlign=middle;whiteSpace=wrap;rounded=0;rotation=90;" vertex="1" parent="1">
          <mxGeometry x="395" y="725" width="70" height="20" as="geometry" />
        </mxCell>
        <mxCell id="OZXpx4kWtVFie0x7K6FJ-1" value="" style="endArrow=classic;html=1;rounded=0;entryX=0.333;entryY=0;entryDx=0;entryDy=0;entryPerimeter=0;exitX=0.322;exitY=1.06;exitDx=0;exitDy=0;exitPerimeter=0;" edge="1" parent="1" source="nsvLtbpFKqeht-PFAIL7-16" target="nsvLtbpFKqeht-PFAIL7-15">
          <mxGeometry width="50" height="50" relative="1" as="geometry">
            <mxPoint x="-30" y="525" as="sourcePoint" />
            <mxPoint x="60" y="525" as="targetPoint" />
          </mxGeometry>
        </mxCell>
        <mxCell id="OZXpx4kWtVFie0x7K6FJ-2" value="&lt;font style=&quot;font-size: 8px; color: rgb(102, 102, 102);&quot;&gt;external interrupt&lt;br&gt;&lt;/font&gt;" style="text;html=1;align=center;verticalAlign=middle;whiteSpace=wrap;rounded=0;rotation=90;" vertex="1" parent="1">
          <mxGeometry x="70" y="555" width="70" height="10" as="geometry" />
        </mxCell>
        <mxCell id="OZXpx4kWtVFie0x7K6FJ-8" style="edgeStyle=orthogonalEdgeStyle;rounded=0;orthogonalLoop=1;jettySize=auto;html=1;exitX=0.5;exitY=0;exitDx=0;exitDy=0;endArrow=none;startFill=1;startArrow=classic;shape=link;" edge="1" parent="1" source="OZXpx4kWtVFie0x7K6FJ-5">
          <mxGeometry relative="1" as="geometry">
            <mxPoint x="160" y="575" as="targetPoint" />
            <Array as="points">
              <mxPoint x="368" y="435" />
              <mxPoint x="240" y="435" />
              <mxPoint x="240" y="565" />
              <mxPoint x="160" y="565" />
            </Array>
          </mxGeometry>
        </mxCell>
        <mxCell id="OZXpx4kWtVFie0x7K6FJ-5" value="APB3 bridge" style="rounded=0;whiteSpace=wrap;html=1;" vertex="1" parent="1">
          <mxGeometry x="322.5" y="455" width="90" height="40" as="geometry" />
        </mxCell>
        <mxCell id="OZXpx4kWtVFie0x7K6FJ-6" value="" style="edgeStyle=orthogonalEdgeStyle;rounded=0;orthogonalLoop=1;jettySize=auto;html=1;startArrow=classic;startFill=1;shape=link;" edge="1" parent="1" source="nsvLtbpFKqeht-PFAIL7-14" target="OZXpx4kWtVFie0x7K6FJ-5">
          <mxGeometry relative="1" as="geometry" />
        </mxCell>
        <mxCell id="OZXpx4kWtVFie0x7K6FJ-7" value="&lt;font style=&quot;font-size: 8px; color: rgb(102, 102, 102);&quot;&gt;dBus (tilelink, 32 bit)&lt;/font&gt;" style="edgeLabel;html=1;align=center;verticalAlign=middle;resizable=0;points=[];" connectable="0" vertex="1" parent="OZXpx4kWtVFie0x7K6FJ-6">
          <mxGeometry x="-0.7303" y="1" relative="1" as="geometry">
            <mxPoint x="-39" y="-15" as="offset" />
          </mxGeometry>
        </mxCell>
        <mxCell id="OZXpx4kWtVFie0x7K6FJ-9" value="" style="endArrow=classic;html=1;rounded=0;entryX=1;entryY=0.5;entryDx=0;entryDy=0;shape=link;" edge="1" parent="1" target="nsvLtbpFKqeht-PFAIL7-16">
          <mxGeometry width="50" height="50" relative="1" as="geometry">
            <mxPoint x="240" y="495" as="sourcePoint" />
            <mxPoint x="310" y="455" as="targetPoint" />
          </mxGeometry>
        </mxCell>
        <mxCell id="OZXpx4kWtVFie0x7K6FJ-10" value="" style="endArrow=classic;html=1;rounded=0;shape=link;" edge="1" parent="1">
          <mxGeometry width="50" height="50" relative="1" as="geometry">
            <mxPoint x="160" y="575" as="sourcePoint" />
            <mxPoint x="160" y="595" as="targetPoint" />
          </mxGeometry>
        </mxCell>
        <mxCell id="OZXpx4kWtVFie0x7K6FJ-11" value="&lt;font style=&quot;font-size: 8px;&quot;&gt;&lt;span style=&quot;color: rgb(102, 102, 102);&quot;&gt;&lt;font&gt;0x10000&lt;/font&gt;&lt;/span&gt;&lt;/font&gt;" style="text;html=1;align=center;verticalAlign=middle;whiteSpace=wrap;rounded=0;" vertex="1" parent="1">
          <mxGeometry x="180" y="545" width="60" height="20" as="geometry" />
        </mxCell>
        <mxCell id="OZXpx4kWtVFie0x7K6FJ-12" value="&lt;font style=&quot;font-size: 8px;&quot;&gt;&lt;span style=&quot;color: rgb(102, 102, 102);&quot;&gt;&lt;font&gt;0x4000000&lt;/font&gt;&lt;/span&gt;&lt;/font&gt;" style="text;html=1;align=center;verticalAlign=middle;whiteSpace=wrap;rounded=0;" vertex="1" parent="1">
          <mxGeometry x="180" y="475" width="60" height="20" as="geometry" />
        </mxCell>
        <mxCell id="OZXpx4kWtVFie0x7K6FJ-25" style="rounded=0;orthogonalLoop=1;jettySize=auto;html=1;exitX=0.5;exitY=1;exitDx=0;exitDy=0;edgeStyle=orthogonalEdgeStyle;shape=link;" edge="1" parent="1" source="OZXpx4kWtVFie0x7K6FJ-14">
          <mxGeometry relative="1" as="geometry">
            <mxPoint x="310" y="345" as="targetPoint" />
            <Array as="points">
              <mxPoint x="123" y="345" />
              <mxPoint x="310" y="345" />
            </Array>
          </mxGeometry>
        </mxCell>
        <mxCell id="OZXpx4kWtVFie0x7K6FJ-14" value="&lt;div&gt;UART&lt;/div&gt;&lt;div&gt;controller&lt;br&gt;&lt;/div&gt;" style="rounded=0;whiteSpace=wrap;html=1;" vertex="1" parent="1">
          <mxGeometry x="90" y="275" width="65" height="40" as="geometry" />
        </mxCell>
        <mxCell id="OZXpx4kWtVFie0x7K6FJ-16" value="&lt;font style=&quot;font-size: 8px;&quot;&gt;&lt;span style=&quot;color: rgb(102, 102, 102);&quot;&gt;&lt;font&gt;0x0 - 0x7ff&lt;/font&gt;&lt;/span&gt;&lt;/font&gt;" style="text;html=1;align=center;verticalAlign=middle;whiteSpace=wrap;rounded=0;" vertex="1" parent="1">
          <mxGeometry x="260" y="365" width="50" height="20" as="geometry" />
        </mxCell>
        <mxCell id="OZXpx4kWtVFie0x7K6FJ-26" style="edgeStyle=orthogonalEdgeStyle;rounded=0;orthogonalLoop=1;jettySize=auto;html=1;exitX=0.5;exitY=1;exitDx=0;exitDy=0;shape=link;" edge="1" parent="1" source="OZXpx4kWtVFie0x7K6FJ-18">
          <mxGeometry relative="1" as="geometry">
            <mxPoint x="217.28571428571422" y="345" as="targetPoint" />
          </mxGeometry>
        </mxCell>
        <mxCell id="OZXpx4kWtVFie0x7K6FJ-118" style="edgeStyle=orthogonalEdgeStyle;rounded=0;orthogonalLoop=1;jettySize=auto;html=1;exitX=0.5;exitY=0;exitDx=0;exitDy=0;entryX=0.5;entryY=1;entryDx=0;entryDy=0;" edge="1" parent="1" source="OZXpx4kWtVFie0x7K6FJ-18" target="OZXpx4kWtVFie0x7K6FJ-112">
          <mxGeometry relative="1" as="geometry" />
        </mxCell>
        <mxCell id="OZXpx4kWtVFie0x7K6FJ-18" value="&lt;div&gt;Audio&lt;/div&gt;&lt;div&gt;controller&lt;br&gt;&lt;/div&gt;" style="rounded=0;whiteSpace=wrap;html=1;" vertex="1" parent="1">
          <mxGeometry x="185" y="275" width="65" height="40" as="geometry" />
        </mxCell>
        <mxCell id="OZXpx4kWtVFie0x7K6FJ-98" style="edgeStyle=orthogonalEdgeStyle;rounded=0;orthogonalLoop=1;jettySize=auto;html=1;exitX=0.5;exitY=0;exitDx=0;exitDy=0;entryX=1;entryY=0.5;entryDx=0;entryDy=0;startArrow=classic;startFill=1;" edge="1" parent="1" source="OZXpx4kWtVFie0x7K6FJ-19" target="OZXpx4kWtVFie0x7K6FJ-81">
          <mxGeometry relative="1" as="geometry">
            <Array as="points">
              <mxPoint x="313" y="85" />
              <mxPoint x="950" y="85" />
              <mxPoint x="950" y="675" />
            </Array>
          </mxGeometry>
        </mxCell>
        <mxCell id="OZXpx4kWtVFie0x7K6FJ-19" value="&lt;div&gt;I2C&lt;/div&gt;&lt;div&gt;controller&lt;br&gt;&lt;/div&gt;" style="rounded=0;whiteSpace=wrap;html=1;" vertex="1" parent="1">
          <mxGeometry x="280" y="275" width="65" height="40" as="geometry" />
        </mxCell>
        <mxCell id="OZXpx4kWtVFie0x7K6FJ-30" style="edgeStyle=orthogonalEdgeStyle;rounded=0;orthogonalLoop=1;jettySize=auto;html=1;exitX=0.5;exitY=1;exitDx=0;exitDy=0;shape=link;" edge="1" parent="1" source="OZXpx4kWtVFie0x7K6FJ-20">
          <mxGeometry relative="1" as="geometry">
            <mxPoint x="402.42857142857133" y="345" as="targetPoint" />
          </mxGeometry>
        </mxCell>
        <mxCell id="OZXpx4kWtVFie0x7K6FJ-99" style="edgeStyle=orthogonalEdgeStyle;rounded=0;orthogonalLoop=1;jettySize=auto;html=1;exitX=0.5;exitY=0;exitDx=0;exitDy=0;entryX=0.5;entryY=1;entryDx=0;entryDy=0;startArrow=classic;startFill=1;" edge="1" parent="1" source="OZXpx4kWtVFie0x7K6FJ-20" target="OZXpx4kWtVFie0x7K6FJ-96">
          <mxGeometry relative="1" as="geometry" />
        </mxCell>
        <mxCell id="OZXpx4kWtVFie0x7K6FJ-20" value="&lt;div&gt;UART&lt;/div&gt;&lt;div&gt;controller&lt;br&gt;&lt;/div&gt;" style="rounded=0;whiteSpace=wrap;html=1;" vertex="1" parent="1">
          <mxGeometry x="370" y="275" width="65" height="40" as="geometry" />
        </mxCell>
        <mxCell id="OZXpx4kWtVFie0x7K6FJ-100" style="edgeStyle=orthogonalEdgeStyle;rounded=0;orthogonalLoop=1;jettySize=auto;html=1;exitX=0.5;exitY=0;exitDx=0;exitDy=0;entryX=0.5;entryY=1;entryDx=0;entryDy=0;startArrow=classic;startFill=1;" edge="1" parent="1" source="OZXpx4kWtVFie0x7K6FJ-21" target="OZXpx4kWtVFie0x7K6FJ-95">
          <mxGeometry relative="1" as="geometry" />
        </mxCell>
        <mxCell id="OZXpx4kWtVFie0x7K6FJ-21" value="&lt;div&gt;SPI&lt;/div&gt;&lt;div&gt;controller&lt;br&gt;&lt;/div&gt;" style="rounded=0;whiteSpace=wrap;html=1;" vertex="1" parent="1">
          <mxGeometry x="465" y="275" width="65" height="40" as="geometry" />
        </mxCell>
        <mxCell id="OZXpx4kWtVFie0x7K6FJ-24" value="" style="edgeStyle=orthogonalEdgeStyle;rounded=0;orthogonalLoop=1;jettySize=auto;html=1;shape=link;" edge="1" parent="1">
          <mxGeometry relative="1" as="geometry">
            <mxPoint x="312.25" y="365" as="sourcePoint" />
            <mxPoint x="312.25" y="435" as="targetPoint" />
          </mxGeometry>
        </mxCell>
        <mxCell id="OZXpx4kWtVFie0x7K6FJ-22" value="" style="swimlane;startSize=0;strokeColor=#808080;" vertex="1" parent="1">
          <mxGeometry x="70" y="235" width="480" height="130" as="geometry" />
        </mxCell>
        <mxCell id="OZXpx4kWtVFie0x7K6FJ-29" value="" style="endArrow=classic;startArrow=classic;html=1;rounded=0;shape=link;" edge="1" parent="OZXpx4kWtVFie0x7K6FJ-22">
          <mxGeometry width="50" height="50" relative="1" as="geometry">
            <mxPoint x="240" y="110" as="sourcePoint" />
            <mxPoint x="430" y="80" as="targetPoint" />
            <Array as="points">
              <mxPoint x="430" y="110" />
            </Array>
          </mxGeometry>
        </mxCell>
        <mxCell id="OZXpx4kWtVFie0x7K6FJ-32" value="&lt;font style=&quot;font-size: 8px;&quot;&gt;&lt;span style=&quot;color: rgb(102, 102, 102);&quot;&gt;&lt;font&gt;0x100&lt;/font&gt;&lt;/span&gt;&lt;/font&gt;" style="text;html=1;align=center;verticalAlign=middle;whiteSpace=wrap;rounded=0;" vertex="1" parent="OZXpx4kWtVFie0x7K6FJ-22">
          <mxGeometry x="60" y="80" width="30" height="10" as="geometry" />
        </mxCell>
        <mxCell id="OZXpx4kWtVFie0x7K6FJ-33" value="&lt;font style=&quot;font-size: 8px;&quot;&gt;&lt;span style=&quot;color: rgb(102, 102, 102);&quot;&gt;&lt;font&gt;0x200&lt;/font&gt;&lt;/span&gt;&lt;/font&gt;" style="text;html=1;align=center;verticalAlign=middle;whiteSpace=wrap;rounded=0;" vertex="1" parent="OZXpx4kWtVFie0x7K6FJ-22">
          <mxGeometry x="110" y="80" width="30" height="10" as="geometry" />
        </mxCell>
        <mxCell id="OZXpx4kWtVFie0x7K6FJ-34" value="&lt;font style=&quot;font-size: 8px;&quot;&gt;&lt;span style=&quot;color: rgb(102, 102, 102);&quot;&gt;&lt;font&gt;0x300&lt;/font&gt;&lt;/span&gt;&lt;/font&gt;" style="text;html=1;align=center;verticalAlign=middle;whiteSpace=wrap;rounded=0;" vertex="1" parent="OZXpx4kWtVFie0x7K6FJ-22">
          <mxGeometry x="210" y="80" width="30" height="10" as="geometry" />
        </mxCell>
        <mxCell id="OZXpx4kWtVFie0x7K6FJ-35" value="&lt;div&gt;&lt;font style=&quot;font-size: 8px;&quot;&gt;&lt;span style=&quot;color: rgb(102, 102, 102);&quot;&gt;&lt;font&gt;0x4&lt;/font&gt;&lt;/span&gt;&lt;span style=&quot;color: rgb(102, 102, 102);&quot;&gt;&lt;font&gt;00&lt;/font&gt;&lt;/span&gt;&lt;/font&gt;&lt;/div&gt;" style="text;html=1;align=center;verticalAlign=middle;whiteSpace=wrap;rounded=0;" vertex="1" parent="OZXpx4kWtVFie0x7K6FJ-22">
          <mxGeometry x="295" y="80" width="30" height="10" as="geometry" />
        </mxCell>
        <mxCell id="OZXpx4kWtVFie0x7K6FJ-36" value="&lt;font style=&quot;font-size: 8px;&quot;&gt;&lt;span style=&quot;color: rgb(102, 102, 102);&quot;&gt;&lt;font&gt;0x500&lt;/font&gt;&lt;/span&gt;&lt;/font&gt;" style="text;html=1;align=center;verticalAlign=middle;whiteSpace=wrap;rounded=0;" vertex="1" parent="OZXpx4kWtVFie0x7K6FJ-22">
          <mxGeometry x="390" y="80" width="30" height="10" as="geometry" />
        </mxCell>
        <mxCell id="OZXpx4kWtVFie0x7K6FJ-37" style="edgeStyle=orthogonalEdgeStyle;rounded=0;orthogonalLoop=1;jettySize=auto;html=1;exitX=0.25;exitY=1;exitDx=0;exitDy=0;entryX=0.172;entryY=-0.01;entryDx=0;entryDy=0;entryPerimeter=0;strokeColor=#808080;dashed=1;dashPattern=1 2;" edge="1" parent="1" source="OZXpx4kWtVFie0x7K6FJ-14" target="nsvLtbpFKqeht-PFAIL7-16">
          <mxGeometry relative="1" as="geometry" />
        </mxCell>
        <mxCell id="OZXpx4kWtVFie0x7K6FJ-38" value="&lt;font style=&quot;font-size: 8px; color: rgb(102, 102, 102);&quot;&gt;UART interrupt&lt;br&gt;&lt;/font&gt;" style="text;html=1;align=center;verticalAlign=middle;whiteSpace=wrap;rounded=0;rotation=90;" vertex="1" parent="1">
          <mxGeometry x="60" y="405" width="70" height="10" as="geometry" />
        </mxCell>
        <mxCell id="OZXpx4kWtVFie0x7K6FJ-42" value="" style="endArrow=none;html=1;rounded=0;exitX=0.505;exitY=1.001;exitDx=0;exitDy=0;exitPerimeter=0;entryX=0.5;entryY=1;entryDx=0;entryDy=0;shape=link;" edge="1" parent="1" source="OZXpx4kWtVFie0x7K6FJ-22" target="OZXpx4kWtVFie0x7K6FJ-19">
          <mxGeometry width="50" height="50" relative="1" as="geometry">
            <mxPoint x="240" y="395" as="sourcePoint" />
            <mxPoint x="290" y="345" as="targetPoint" />
          </mxGeometry>
        </mxCell>
        <mxCell id="OZXpx4kWtVFie0x7K6FJ-47" style="edgeStyle=orthogonalEdgeStyle;rounded=0;orthogonalLoop=1;jettySize=auto;html=1;exitX=0.181;exitY=1.029;exitDx=0;exitDy=0;shape=link;exitPerimeter=0;" edge="1" parent="1" source="OZXpx4kWtVFie0x7K6FJ-43">
          <mxGeometry relative="1" as="geometry">
            <mxPoint x="370" y="435" as="targetPoint" />
            <Array as="points">
              <mxPoint x="602" y="330" />
              <mxPoint x="602" y="330" />
              <mxPoint x="602" y="435" />
            </Array>
          </mxGeometry>
        </mxCell>
        <mxCell id="OZXpx4kWtVFie0x7K6FJ-44" style="edgeStyle=orthogonalEdgeStyle;rounded=0;orthogonalLoop=1;jettySize=auto;html=1;exitX=0.062;exitY=0.988;exitDx=0;exitDy=0;entryX=0.424;entryY=-0.021;entryDx=0;entryDy=0;entryPerimeter=0;dashed=1;dashPattern=1 2;strokeColor=#808080;exitPerimeter=0;" edge="1" parent="1" source="OZXpx4kWtVFie0x7K6FJ-43" target="nsvLtbpFKqeht-PFAIL7-16">
          <mxGeometry relative="1" as="geometry" />
        </mxCell>
        <mxCell id="OZXpx4kWtVFie0x7K6FJ-45" value="&lt;font style=&quot;font-size: 8px; color: rgb(102, 102, 102);&quot;&gt;SD-card interrupt&lt;br&gt;&lt;/font&gt;" style="text;html=1;align=center;verticalAlign=middle;whiteSpace=wrap;rounded=0;rotation=0;" vertex="1" parent="1">
          <mxGeometry x="140" y="385" width="70" height="10" as="geometry" />
        </mxCell>
        <mxCell id="OZXpx4kWtVFie0x7K6FJ-50" value="&lt;font style=&quot;font-size: 8px; color: rgb(102, 102, 102);&quot;&gt;SpinalHDL lib&lt;br&gt;&lt;/font&gt;" style="text;html=1;align=center;verticalAlign=middle;whiteSpace=wrap;rounded=0;" vertex="1" parent="1">
          <mxGeometry x="348.75" y="485" width="63.75" height="10" as="geometry" />
        </mxCell>
        <mxCell id="OZXpx4kWtVFie0x7K6FJ-52" value="&lt;font style=&quot;font-size: 8px; color: rgb(102, 102, 102);&quot;&gt;SpinalHDL lib&lt;br&gt;&lt;/font&gt;" style="text;html=1;align=center;verticalAlign=middle;whiteSpace=wrap;rounded=0;" vertex="1" parent="1">
          <mxGeometry x="636.25" y="815" width="63.75" height="10" as="geometry" />
        </mxCell>
        <mxCell id="OZXpx4kWtVFie0x7K6FJ-53" value="&lt;font style=&quot;font-size: 8px; color: rgb(102, 102, 102);&quot;&gt;SpinalHDL lib&lt;br&gt;&lt;/font&gt;" style="text;html=1;align=center;verticalAlign=middle;whiteSpace=wrap;rounded=0;" vertex="1" parent="1">
          <mxGeometry x="121.25" y="515" width="63.75" height="10" as="geometry" />
        </mxCell>
        <mxCell id="OZXpx4kWtVFie0x7K6FJ-61" style="edgeStyle=orthogonalEdgeStyle;rounded=0;orthogonalLoop=1;jettySize=auto;html=1;exitX=0;exitY=0.25;exitDx=0;exitDy=0;shape=link;" edge="1" parent="1" source="OZXpx4kWtVFie0x7K6FJ-54">
          <mxGeometry relative="1" as="geometry">
            <mxPoint x="560" y="569.6666666666667" as="targetPoint" />
          </mxGeometry>
        </mxCell>
        <mxCell id="OZXpx4kWtVFie0x7K6FJ-82" style="edgeStyle=orthogonalEdgeStyle;rounded=0;orthogonalLoop=1;jettySize=auto;html=1;exitX=0.997;exitY=0.683;exitDx=0;exitDy=0;entryX=0;entryY=0.5;entryDx=0;entryDy=0;exitPerimeter=0;" edge="1" parent="1" source="OZXpx4kWtVFie0x7K6FJ-54" target="OZXpx4kWtVFie0x7K6FJ-81">
          <mxGeometry relative="1" as="geometry" />
        </mxCell>
        <mxCell id="OZXpx4kWtVFie0x7K6FJ-54" value="&lt;div&gt;Display&lt;/div&gt;&lt;div&gt;controller&lt;br&gt;&lt;/div&gt;" style="rounded=0;whiteSpace=wrap;html=1;" vertex="1" parent="1">
          <mxGeometry x="590" y="555" width="110" height="60" as="geometry" />
        </mxCell>
        <mxCell id="OZXpx4kWtVFie0x7K6FJ-62" style="edgeStyle=orthogonalEdgeStyle;rounded=0;orthogonalLoop=1;jettySize=auto;html=1;exitX=0;exitY=0.25;exitDx=0;exitDy=0;shape=link;" edge="1" parent="1" source="OZXpx4kWtVFie0x7K6FJ-55">
          <mxGeometry relative="1" as="geometry">
            <mxPoint x="560" y="474.66666666666674" as="targetPoint" />
          </mxGeometry>
        </mxCell>
        <mxCell id="OZXpx4kWtVFie0x7K6FJ-90" style="edgeStyle=orthogonalEdgeStyle;rounded=0;orthogonalLoop=1;jettySize=auto;html=1;exitX=1;exitY=0.5;exitDx=0;exitDy=0;entryX=0;entryY=0.5;entryDx=0;entryDy=0;startArrow=classic;startFill=1;" edge="1" parent="1" source="OZXpx4kWtVFie0x7K6FJ-55" target="OZXpx4kWtVFie0x7K6FJ-88">
          <mxGeometry relative="1" as="geometry">
            <Array as="points">
              <mxPoint x="730" y="490" />
              <mxPoint x="730" y="430" />
            </Array>
          </mxGeometry>
        </mxCell>
        <mxCell id="OZXpx4kWtVFie0x7K6FJ-55" value="&lt;div&gt;USB OHCI&lt;/div&gt;&lt;div&gt;controller&lt;br&gt;&lt;/div&gt;" style="rounded=0;whiteSpace=wrap;html=1;" vertex="1" parent="1">
          <mxGeometry x="590" y="460" width="110" height="60" as="geometry" />
        </mxCell>
        <mxCell id="OZXpx4kWtVFie0x7K6FJ-60" style="edgeStyle=orthogonalEdgeStyle;rounded=0;orthogonalLoop=1;jettySize=auto;html=1;exitX=0;exitY=0.5;exitDx=0;exitDy=0;shape=link;" edge="1" parent="1" source="OZXpx4kWtVFie0x7K6FJ-56">
          <mxGeometry relative="1" as="geometry">
            <mxPoint x="560" y="435" as="targetPoint" />
          </mxGeometry>
        </mxCell>
        <mxCell id="OZXpx4kWtVFie0x7K6FJ-56" value="&lt;div&gt;&lt;span style=&quot;color: rgb(128, 128, 128);&quot;&gt;GPU&lt;/span&gt;&lt;/div&gt;&lt;div&gt;&lt;font style=&quot;font-size: 8px; color: rgb(102, 102, 102);&quot;&gt;(not implemented yet)&lt;/font&gt;&lt;br&gt;&lt;/div&gt;" style="rounded=0;whiteSpace=wrap;html=1;strokeColor=#CCCCCC;" vertex="1" parent="1">
          <mxGeometry x="590" y="650" width="110" height="55" as="geometry" />
        </mxCell>
        <mxCell id="OZXpx4kWtVFie0x7K6FJ-57" value="" style="shape=flexArrow;endArrow=classic;startArrow=classic;html=1;rounded=0;exitX=0.858;exitY=-0.008;exitDx=0;exitDy=0;exitPerimeter=0;strokeColor=#ABABAB;" edge="1" parent="1" source="nsvLtbpFKqeht-PFAIL7-31">
          <mxGeometry width="100" height="100" relative="1" as="geometry">
            <mxPoint x="540" y="805" as="sourcePoint" />
            <mxPoint x="640" y="705" as="targetPoint" />
          </mxGeometry>
        </mxCell>
        <mxCell id="OZXpx4kWtVFie0x7K6FJ-58" style="edgeStyle=orthogonalEdgeStyle;rounded=0;orthogonalLoop=1;jettySize=auto;html=1;exitX=0;exitY=0.75;exitDx=0;exitDy=0;entryX=0.629;entryY=-0.05;entryDx=0;entryDy=0;entryPerimeter=0;shape=flexArrow;startArrow=block;endArrow=none;startFill=0;" edge="1" parent="1" source="OZXpx4kWtVFie0x7K6FJ-54" target="nsvLtbpFKqeht-PFAIL7-31">
          <mxGeometry relative="1" as="geometry" />
        </mxCell>
        <mxCell id="OZXpx4kWtVFie0x7K6FJ-59" style="edgeStyle=orthogonalEdgeStyle;rounded=0;orthogonalLoop=1;jettySize=auto;html=1;exitX=0;exitY=0.75;exitDx=0;exitDy=0;entryX=0.534;entryY=-0.092;entryDx=0;entryDy=0;entryPerimeter=0;shape=flexArrow;startArrow=block;" edge="1" parent="1" source="OZXpx4kWtVFie0x7K6FJ-55" target="nsvLtbpFKqeht-PFAIL7-31">
          <mxGeometry relative="1" as="geometry" />
        </mxCell>
        <mxCell id="OZXpx4kWtVFie0x7K6FJ-63" value="&lt;font style=&quot;font-size: 8px;&quot;&gt;&lt;span style=&quot;color: rgb(102, 102, 102);&quot;&gt;&lt;font&gt;0x2000&lt;/font&gt;&lt;/span&gt;&lt;/font&gt;" style="text;html=1;align=center;verticalAlign=middle;whiteSpace=wrap;rounded=0;" vertex="1" parent="1">
          <mxGeometry x="560" y="555" width="30" height="10" as="geometry" />
        </mxCell>
        <mxCell id="OZXpx4kWtVFie0x7K6FJ-65" value="&lt;font style=&quot;font-size: 8px;&quot;&gt;&lt;span style=&quot;color: rgb(102, 102, 102);&quot;&gt;&lt;font&gt;0x4000&lt;/font&gt;&lt;/span&gt;&lt;/font&gt;" style="text;html=1;align=center;verticalAlign=middle;whiteSpace=wrap;rounded=0;" vertex="1" parent="1">
          <mxGeometry x="560" y="460" width="30" height="10" as="geometry" />
        </mxCell>
        <mxCell id="OZXpx4kWtVFie0x7K6FJ-66" value="&lt;font style=&quot;font-size: 8px;&quot;&gt;&lt;span style=&quot;color: rgb(102, 102, 102);&quot;&gt;&lt;font&gt;0x5000&lt;/font&gt;&lt;/span&gt;&lt;/font&gt;" style="text;html=1;align=center;verticalAlign=middle;whiteSpace=wrap;rounded=0;" vertex="1" parent="1">
          <mxGeometry x="556.25" y="685" width="30" height="10" as="geometry" />
        </mxCell>
        <mxCell id="OZXpx4kWtVFie0x7K6FJ-68" value="&lt;font style=&quot;font-size: 8px; color: rgb(102, 102, 102);&quot;&gt;SpinalHDL lib&lt;br&gt;&lt;/font&gt;" style="text;html=1;align=center;verticalAlign=middle;whiteSpace=wrap;rounded=0;" vertex="1" parent="1">
          <mxGeometry x="636.25" y="510" width="63.75" height="10" as="geometry" />
        </mxCell>
        <mxCell id="OZXpx4kWtVFie0x7K6FJ-69" style="edgeStyle=orthogonalEdgeStyle;rounded=0;orthogonalLoop=1;jettySize=auto;html=1;exitX=0.5;exitY=0;exitDx=0;exitDy=0;entryX=0.692;entryY=0;entryDx=0;entryDy=0;entryPerimeter=0;strokeColor=#808080;dashed=1;dashPattern=1 2;" edge="1" parent="1" source="OZXpx4kWtVFie0x7K6FJ-55" target="nsvLtbpFKqeht-PFAIL7-16">
          <mxGeometry relative="1" as="geometry">
            <Array as="points">
              <mxPoint x="645" y="415" />
              <mxPoint x="152" y="415" />
            </Array>
          </mxGeometry>
        </mxCell>
        <mxCell id="OZXpx4kWtVFie0x7K6FJ-70" value="&lt;font style=&quot;font-size: 8px; color: rgb(102, 102, 102);&quot;&gt;OHCI interrupt&lt;br&gt;&lt;/font&gt;" style="text;html=1;align=center;verticalAlign=middle;whiteSpace=wrap;rounded=0;rotation=0;" vertex="1" parent="1">
          <mxGeometry x="155" y="415" width="70" height="10" as="geometry" />
        </mxCell>
        <mxCell id="OZXpx4kWtVFie0x7K6FJ-94" style="edgeStyle=orthogonalEdgeStyle;rounded=0;orthogonalLoop=1;jettySize=auto;html=1;exitX=0.5;exitY=1;exitDx=0;exitDy=0;entryX=0.5;entryY=0;entryDx=0;entryDy=0;shape=flexArrow;startArrow=block;" edge="1" parent="1" source="OZXpx4kWtVFie0x7K6FJ-71" target="OZXpx4kWtVFie0x7K6FJ-93">
          <mxGeometry relative="1" as="geometry" />
        </mxCell>
        <mxCell id="OZXpx4kWtVFie0x7K6FJ-71" value="DDR3 Soft Controller" style="rounded=0;whiteSpace=wrap;html=1;" vertex="1" parent="1">
          <mxGeometry x="470" y="895" width="210" height="60" as="geometry" />
        </mxCell>
        <mxCell id="OZXpx4kWtVFie0x7K6FJ-72" value="&lt;font style=&quot;font-size: 8px; color: rgb(102, 102, 102);&quot;&gt;Efinix IP core&lt;br&gt;&lt;/font&gt;" style="text;html=1;align=center;verticalAlign=middle;whiteSpace=wrap;rounded=0;" vertex="1" parent="1">
          <mxGeometry x="613.13" y="940" width="63.75" height="10" as="geometry" />
        </mxCell>
        <mxCell id="OZXpx4kWtVFie0x7K6FJ-75" style="edgeStyle=orthogonalEdgeStyle;rounded=0;orthogonalLoop=1;jettySize=auto;html=1;exitX=1;exitY=0.5;exitDx=0;exitDy=0;entryX=0;entryY=0.5;entryDx=0;entryDy=0;shape=flexArrow;startArrow=block;" edge="1" parent="1" source="OZXpx4kWtVFie0x7K6FJ-73" target="OZXpx4kWtVFie0x7K6FJ-71">
          <mxGeometry relative="1" as="geometry" />
        </mxCell>
        <mxCell id="OZXpx4kWtVFie0x7K6FJ-73" value="Bridge to DDR3 controller" style="rounded=0;whiteSpace=wrap;html=1;" vertex="1" parent="1">
          <mxGeometry x="150" y="895" width="120" height="60" as="geometry" />
        </mxCell>
        <mxCell id="OZXpx4kWtVFie0x7K6FJ-78" value="&lt;font style=&quot;font-size: 8px; color: rgb(102, 102, 102);&quot;&gt;native controller interface, 128 bit&lt;br&gt;&lt;/font&gt;" style="text;html=1;align=center;verticalAlign=middle;whiteSpace=wrap;rounded=0;" vertex="1" parent="1">
          <mxGeometry x="295" y="905" width="145" height="10" as="geometry" />
        </mxCell>
        <mxCell id="OZXpx4kWtVFie0x7K6FJ-79" value="" style="swimlane;startSize=0;strokeColor=#006633;" vertex="1" parent="1">
          <mxGeometry x="53.129999999999995" y="215" width="666.87" height="780" as="geometry">
            <mxRectangle x="113.13" y="150" width="50" height="40" as="alternateBounds" />
          </mxGeometry>
        </mxCell>
        <mxCell id="OZXpx4kWtVFie0x7K6FJ-80" value="&lt;font style=&quot;font-size: 20px; color: rgb(0, 102, 51);&quot;&gt;FPGA Ti60&lt;/font&gt;" style="text;html=1;align=center;verticalAlign=middle;whiteSpace=wrap;rounded=0;" vertex="1" parent="OZXpx4kWtVFie0x7K6FJ-79">
          <mxGeometry y="740" width="120" height="50" as="geometry" />
        </mxCell>
        <mxCell id="OZXpx4kWtVFie0x7K6FJ-43" value="&lt;div&gt;&lt;br&gt;&lt;/div&gt;&lt;div&gt;SD-card controller&lt;/div&gt;&lt;div&gt;&lt;br&gt;&lt;/div&gt;&lt;div&gt;&lt;font style=&quot;font-size: 8px; color: rgb(102, 102, 102);&quot;&gt;https://github.com/ZipCPU/sdspi&lt;/font&gt;&lt;br&gt;&lt;/div&gt;" style="rounded=0;whiteSpace=wrap;html=1;" vertex="1" parent="OZXpx4kWtVFie0x7K6FJ-79">
          <mxGeometry x="526.87" y="20" width="120" height="70" as="geometry" />
        </mxCell>
        <mxCell id="OZXpx4kWtVFie0x7K6FJ-85" style="edgeStyle=orthogonalEdgeStyle;rounded=0;orthogonalLoop=1;jettySize=auto;html=1;exitX=1;exitY=0.5;exitDx=0;exitDy=0;entryX=0;entryY=0.5;entryDx=0;entryDy=0;" edge="1" parent="OZXpx4kWtVFie0x7K6FJ-79" source="OZXpx4kWtVFie0x7K6FJ-43" target="OZXpx4kWtVFie0x7K6FJ-86">
          <mxGeometry relative="1" as="geometry">
            <mxPoint x="716.87" y="55.45454545454527" as="targetPoint" />
          </mxGeometry>
        </mxCell>
        <mxCell id="OZXpx4kWtVFie0x7K6FJ-86" value="&lt;font style=&quot;font-size: 16px;&quot;&gt;MicroSD slot&lt;br&gt;&lt;/font&gt;" style="text;html=1;align=center;verticalAlign=middle;whiteSpace=wrap;rounded=0;" vertex="1" parent="OZXpx4kWtVFie0x7K6FJ-79">
          <mxGeometry x="716.87" y="40" width="110" height="30" as="geometry" />
        </mxCell>
        <mxCell id="OZXpx4kWtVFie0x7K6FJ-46" value="&lt;font style=&quot;font-size: 8px;&quot;&gt;&lt;span style=&quot;color: rgb(102, 102, 102);&quot;&gt;&lt;font&gt;0x3000&lt;/font&gt;&lt;/span&gt;&lt;/font&gt;" style="text;html=1;align=center;verticalAlign=middle;whiteSpace=wrap;rounded=0;" vertex="1" parent="OZXpx4kWtVFie0x7K6FJ-79">
          <mxGeometry x="556.87" y="90" width="30" height="10" as="geometry" />
        </mxCell>
        <mxCell id="OZXpx4kWtVFie0x7K6FJ-105" style="edgeStyle=orthogonalEdgeStyle;rounded=0;orthogonalLoop=1;jettySize=auto;html=1;exitX=0;exitY=0.5;exitDx=0;exitDy=0;shape=link;" edge="1" parent="OZXpx4kWtVFie0x7K6FJ-79" source="OZXpx4kWtVFie0x7K6FJ-104">
          <mxGeometry relative="1" as="geometry">
            <mxPoint x="546.87" y="150.03030303030312" as="targetPoint" />
          </mxGeometry>
        </mxCell>
        <mxCell id="OZXpx4kWtVFie0x7K6FJ-104" value="&lt;div&gt;Board&lt;/div&gt;&lt;div&gt;controller&lt;br&gt;&lt;/div&gt;" style="rounded=0;whiteSpace=wrap;html=1;" vertex="1" parent="OZXpx4kWtVFie0x7K6FJ-79">
          <mxGeometry x="583.74" y="120" width="63.13" height="60" as="geometry" />
        </mxCell>
        <mxCell id="OZXpx4kWtVFie0x7K6FJ-106" value="&lt;font style=&quot;font-size: 8px;&quot;&gt;&lt;span style=&quot;color: rgb(102, 102, 102);&quot;&gt;&lt;font&gt;0x1000&lt;/font&gt;&lt;/span&gt;&lt;/font&gt;" style="text;html=1;align=center;verticalAlign=middle;whiteSpace=wrap;rounded=0;" vertex="1" parent="OZXpx4kWtVFie0x7K6FJ-79">
          <mxGeometry x="553.74" y="130" width="30" height="10" as="geometry" />
        </mxCell>
        <mxCell id="OZXpx4kWtVFie0x7K6FJ-23" value="&lt;span style=&quot;color: rgb(128, 128, 128);&quot;&gt;60 MHz clock area&lt;/span&gt;" style="text;html=1;align=center;verticalAlign=middle;resizable=0;points=[];autosize=1;strokeColor=none;fillColor=none;" vertex="1" parent="OZXpx4kWtVFie0x7K6FJ-79">
          <mxGeometry x="376.87" y="130" width="120" height="30" as="geometry" />
        </mxCell>
        <mxCell id="OZXpx4kWtVFie0x7K6FJ-77" value="&lt;font style=&quot;font-size: 8px; color: rgb(102, 102, 102);&quot;&gt;tilelink, 64 bit&lt;br&gt;&lt;/font&gt;" style="text;html=1;align=center;verticalAlign=middle;whiteSpace=wrap;rounded=0;" vertex="1" parent="OZXpx4kWtVFie0x7K6FJ-79">
          <mxGeometry x="140" y="570" width="56.87" height="10" as="geometry" />
        </mxCell>
        <mxCell id="OZXpx4kWtVFie0x7K6FJ-87" style="edgeStyle=orthogonalEdgeStyle;rounded=0;orthogonalLoop=1;jettySize=auto;html=1;exitX=0.5;exitY=1;exitDx=0;exitDy=0;" edge="1" parent="1" source="OZXpx4kWtVFie0x7K6FJ-81">
          <mxGeometry relative="1" as="geometry">
            <mxPoint x="850.181818181818" y="745" as="targetPoint" />
          </mxGeometry>
        </mxCell>
        <mxCell id="OZXpx4kWtVFie0x7K6FJ-81" value="&lt;font style=&quot;font-size: 20px; color: rgb(0, 102, 51);&quot;&gt;TFP410&lt;/font&gt;" style="rounded=0;whiteSpace=wrap;html=1;strokeColor=#006633;" vertex="1" parent="1">
          <mxGeometry x="790" y="645" width="120" height="60" as="geometry" />
        </mxCell>
        <mxCell id="OZXpx4kWtVFie0x7K6FJ-84" value="&lt;font style=&quot;font-size: 16px;&quot;&gt;DVI output&lt;br&gt;&lt;/font&gt;" style="text;html=1;align=center;verticalAlign=middle;whiteSpace=wrap;rounded=0;" vertex="1" parent="1">
          <mxGeometry x="800" y="752.5" width="100" height="30" as="geometry" />
        </mxCell>
        <mxCell id="OZXpx4kWtVFie0x7K6FJ-88" value="&lt;font style=&quot;font-size: 16px;&quot;&gt;USB1.1, port 0&lt;font&gt;&lt;br&gt;&lt;/font&gt;&lt;/font&gt;" style="text;html=1;align=center;verticalAlign=middle;whiteSpace=wrap;rounded=0;" vertex="1" parent="1">
          <mxGeometry x="770" y="415" width="120" height="30" as="geometry" />
        </mxCell>
        <mxCell id="OZXpx4kWtVFie0x7K6FJ-92" style="edgeStyle=orthogonalEdgeStyle;rounded=0;orthogonalLoop=1;jettySize=auto;html=1;startArrow=classic;startFill=1;endArrow=none;" edge="1" parent="1" source="OZXpx4kWtVFie0x7K6FJ-89">
          <mxGeometry relative="1" as="geometry">
            <mxPoint x="730" y="465" as="targetPoint" />
          </mxGeometry>
        </mxCell>
        <mxCell id="OZXpx4kWtVFie0x7K6FJ-89" value="&lt;font style=&quot;font-size: 16px;&quot;&gt;USB1.1, port 1&lt;font&gt;&lt;br&gt;&lt;/font&gt;&lt;/font&gt;" style="text;html=1;align=center;verticalAlign=middle;whiteSpace=wrap;rounded=0;" vertex="1" parent="1">
          <mxGeometry x="770" y="450" width="120" height="30" as="geometry" />
        </mxCell>
        <mxCell id="OZXpx4kWtVFie0x7K6FJ-93" value="&lt;font style=&quot;font-size: 20px; color: rgb(0, 102, 51);&quot;&gt;1 GB DDR3 RAM&lt;/font&gt;" style="rounded=0;whiteSpace=wrap;html=1;strokeColor=#006633;" vertex="1" parent="1">
          <mxGeometry x="470" y="1035" width="210" height="60" as="geometry" />
        </mxCell>
        <mxCell id="OZXpx4kWtVFie0x7K6FJ-95" value="&lt;font style=&quot;font-size: 20px; color: rgb(0, 102, 51);&quot;&gt;SPI flash&lt;/font&gt;" style="rounded=0;whiteSpace=wrap;html=1;strokeColor=#006633;" vertex="1" parent="1">
          <mxGeometry x="466.25" y="115" width="103.75" height="60" as="geometry" />
        </mxCell>
        <mxCell id="OZXpx4kWtVFie0x7K6FJ-96" value="&lt;font style=&quot;font-size: 20px; color: rgb(0, 102, 51);&quot;&gt;ESP32&lt;/font&gt;" style="rounded=0;whiteSpace=wrap;html=1;strokeColor=#006633;" vertex="1" parent="1">
          <mxGeometry x="353.75" y="115" width="97.5" height="60" as="geometry" />
        </mxCell>
        <mxCell id="OZXpx4kWtVFie0x7K6FJ-122" style="edgeStyle=orthogonalEdgeStyle;rounded=0;orthogonalLoop=1;jettySize=auto;html=1;exitX=0.5;exitY=0;exitDx=0;exitDy=0;startArrow=classic;startFill=1;" edge="1" parent="1" source="OZXpx4kWtVFie0x7K6FJ-97">
          <mxGeometry relative="1" as="geometry">
            <mxPoint x="97.85714285714289" y="65" as="targetPoint" />
          </mxGeometry>
        </mxCell>
        <mxCell id="OZXpx4kWtVFie0x7K6FJ-97" value="&lt;div&gt;&lt;font style=&quot;font-size: 20px; color: rgb(0, 102, 51);&quot;&gt;FT2232HL&lt;/font&gt;&lt;/div&gt;" style="rounded=0;whiteSpace=wrap;html=1;strokeColor=#006633;" vertex="1" parent="1">
          <mxGeometry x="46.87" y="115" width="103.13" height="60" as="geometry" />
        </mxCell>
        <mxCell id="OZXpx4kWtVFie0x7K6FJ-103" style="edgeStyle=orthogonalEdgeStyle;rounded=0;orthogonalLoop=1;jettySize=auto;html=1;exitX=1;exitY=0.5;exitDx=0;exitDy=0;startArrow=classic;startFill=1;endArrow=none;" edge="1" parent="1" source="OZXpx4kWtVFie0x7K6FJ-101">
          <mxGeometry relative="1" as="geometry">
            <mxPoint x="950" y="565.0526315789475" as="targetPoint" />
          </mxGeometry>
        </mxCell>
        <mxCell id="OZXpx4kWtVFie0x7K6FJ-101" value="&lt;div&gt;&lt;font style=&quot;color: rgb(0, 0, 0);&quot;&gt;clock generator&lt;/font&gt;&lt;/div&gt;&lt;div&gt;&lt;font style=&quot;font-size: 20px; color: rgb(0, 102, 51);&quot;&gt;SI5351A&lt;/font&gt;&lt;/div&gt;" style="rounded=0;whiteSpace=wrap;html=1;strokeColor=#006633;" vertex="1" parent="1">
          <mxGeometry x="790" y="535" width="120" height="60" as="geometry" />
        </mxCell>
        <mxCell id="OZXpx4kWtVFie0x7K6FJ-102" style="edgeStyle=orthogonalEdgeStyle;rounded=0;orthogonalLoop=1;jettySize=auto;html=1;exitX=0;exitY=0.5;exitDx=0;exitDy=0;entryX=1.002;entryY=0.17;entryDx=0;entryDy=0;entryPerimeter=0;" edge="1" parent="1" source="OZXpx4kWtVFie0x7K6FJ-101" target="OZXpx4kWtVFie0x7K6FJ-54">
          <mxGeometry relative="1" as="geometry" />
        </mxCell>
        <mxCell id="OZXpx4kWtVFie0x7K6FJ-107" value="&lt;div align=&quot;left&quot;&gt;&amp;nbsp; LEDs&lt;/div&gt;" style="text;html=1;align=left;verticalAlign=middle;whiteSpace=wrap;rounded=0;" vertex="1" parent="1">
          <mxGeometry x="770" y="335" width="60" height="20" as="geometry" />
        </mxCell>
        <mxCell id="OZXpx4kWtVFie0x7K6FJ-108" value="&lt;div align=&quot;left&quot;&gt;&amp;nbsp; keys&lt;/div&gt;" style="text;html=1;align=left;verticalAlign=middle;whiteSpace=wrap;rounded=0;" vertex="1" parent="1">
          <mxGeometry x="770" y="365" width="60" height="20" as="geometry" />
        </mxCell>
        <mxCell id="OZXpx4kWtVFie0x7K6FJ-109" style="edgeStyle=orthogonalEdgeStyle;rounded=0;orthogonalLoop=1;jettySize=auto;html=1;exitX=0;exitY=0.5;exitDx=0;exitDy=0;entryX=1;entryY=0.671;entryDx=0;entryDy=0;entryPerimeter=0;" edge="1" parent="1" source="OZXpx4kWtVFie0x7K6FJ-108" target="OZXpx4kWtVFie0x7K6FJ-104">
          <mxGeometry relative="1" as="geometry" />
        </mxCell>
        <mxCell id="OZXpx4kWtVFie0x7K6FJ-111" style="edgeStyle=orthogonalEdgeStyle;rounded=0;orthogonalLoop=1;jettySize=auto;html=1;exitX=0;exitY=0.5;exitDx=0;exitDy=0;entryX=1.003;entryY=0.17;entryDx=0;entryDy=0;entryPerimeter=0;endArrow=none;startFill=1;startArrow=classic;" edge="1" parent="1" source="OZXpx4kWtVFie0x7K6FJ-107" target="OZXpx4kWtVFie0x7K6FJ-104">
          <mxGeometry relative="1" as="geometry" />
        </mxCell>
        <mxCell id="OZXpx4kWtVFie0x7K6FJ-117" style="edgeStyle=orthogonalEdgeStyle;rounded=0;orthogonalLoop=1;jettySize=auto;html=1;exitX=0.5;exitY=0;exitDx=0;exitDy=0;entryX=0.5;entryY=1;entryDx=0;entryDy=0;" edge="1" parent="1" source="OZXpx4kWtVFie0x7K6FJ-112" target="OZXpx4kWtVFie0x7K6FJ-113">
          <mxGeometry relative="1" as="geometry" />
        </mxCell>
        <mxCell id="OZXpx4kWtVFie0x7K6FJ-112" value="&lt;div&gt;&lt;font style=&quot;color: rgb(0, 0, 0);&quot;&gt;DAC&lt;/font&gt;&lt;/div&gt;&lt;div&gt;&lt;font style=&quot;font-size: 20px; color: rgb(0, 102, 51);&quot;&gt;MCP4728&lt;/font&gt;&lt;/div&gt;" style="rounded=0;whiteSpace=wrap;html=1;strokeColor=#006633;" vertex="1" parent="1">
          <mxGeometry x="165" y="115" width="105" height="60" as="geometry" />
        </mxCell>
        <mxCell id="OZXpx4kWtVFie0x7K6FJ-114" style="edgeStyle=orthogonalEdgeStyle;rounded=0;orthogonalLoop=1;jettySize=auto;html=1;exitX=1;exitY=0.5;exitDx=0;exitDy=0;" edge="1" parent="1" source="OZXpx4kWtVFie0x7K6FJ-113">
          <mxGeometry relative="1" as="geometry">
            <mxPoint x="299.9999999999998" y="35.28571428571445" as="targetPoint" />
          </mxGeometry>
        </mxCell>
        <mxCell id="OZXpx4kWtVFie0x7K6FJ-113" value="&lt;div&gt;&lt;font style=&quot;color: rgb(0, 0, 0);&quot;&gt;amplifier&lt;/font&gt;&lt;/div&gt;&lt;div&gt;&lt;font style=&quot;font-size: 20px; color: rgb(0, 102, 51);&quot;&gt;LM4811&lt;/font&gt;&lt;/div&gt;" style="rounded=0;whiteSpace=wrap;html=1;strokeColor=#006633;" vertex="1" parent="1">
          <mxGeometry x="165" y="5" width="105" height="60" as="geometry" />
        </mxCell>
        <mxCell id="OZXpx4kWtVFie0x7K6FJ-116" value="&lt;div&gt;&lt;font style=&quot;font-size: 16px;&quot;&gt;audio 3.5mm&lt;/font&gt;&lt;/div&gt;&lt;div&gt;&lt;font style=&quot;font-size: 16px;&quot;&gt;2 channels&lt;br&gt;&lt;/font&gt;&lt;/div&gt;" style="text;html=1;align=center;verticalAlign=middle;whiteSpace=wrap;rounded=0;" vertex="1" parent="1">
          <mxGeometry x="305" y="20" width="95" height="30" as="geometry" />
        </mxCell>
        <mxCell id="OZXpx4kWtVFie0x7K6FJ-123" value="USB-C" style="text;html=1;align=center;verticalAlign=middle;whiteSpace=wrap;rounded=0;" vertex="1" parent="1">
          <mxGeometry x="65" y="35" width="60" height="30" as="geometry" />
        </mxCell>
        <mxCell id="OZXpx4kWtVFie0x7K6FJ-126" style="edgeStyle=orthogonalEdgeStyle;rounded=0;orthogonalLoop=1;jettySize=auto;html=1;exitX=1;exitY=0.5;exitDx=0;exitDy=0;startArrow=classic;startFill=1;endArrow=none;" edge="1" parent="1" source="OZXpx4kWtVFie0x7K6FJ-124">
          <mxGeometry relative="1" as="geometry">
            <mxPoint x="950" y="155" as="targetPoint" />
          </mxGeometry>
        </mxCell>
        <mxCell id="OZXpx4kWtVFie0x7K6FJ-124" value="&lt;div&gt;&lt;font style=&quot;color: rgb(0, 0, 0);&quot;&gt;real-time clock&lt;/font&gt;&lt;/div&gt;&lt;div&gt;&lt;font style=&quot;font-size: 20px; color: rgb(0, 102, 51);&quot;&gt;PCF85063A&lt;/font&gt;&lt;/div&gt;" style="rounded=0;whiteSpace=wrap;html=1;strokeColor=#006633;" vertex="1" parent="1">
          <mxGeometry x="760" y="125" width="150" height="60" as="geometry" />
        </mxCell>
        <mxCell id="OZXpx4kWtVFie0x7K6FJ-127" value="JTAG" style="text;html=1;align=center;verticalAlign=middle;whiteSpace=wrap;rounded=0;" vertex="1" parent="1">
          <mxGeometry x="40" y="185" width="30" height="20" as="geometry" />
        </mxCell>
        <mxCell id="OZXpx4kWtVFie0x7K6FJ-128" value="UART" style="text;html=1;align=center;verticalAlign=middle;whiteSpace=wrap;rounded=0;" vertex="1" parent="1">
          <mxGeometry x="130" y="185" width="30" height="20" as="geometry" />
        </mxCell>
        <mxCell id="OZXpx4kWtVFie0x7K6FJ-129" value="I2C" style="text;html=1;align=center;verticalAlign=middle;whiteSpace=wrap;rounded=0;" vertex="1" parent="1">
          <mxGeometry x="220" y="185" width="30" height="20" as="geometry" />
        </mxCell>
        <mxCell id="OZXpx4kWtVFie0x7K6FJ-130" value="I2C" style="text;html=1;align=center;verticalAlign=middle;whiteSpace=wrap;rounded=0;" vertex="1" parent="1">
          <mxGeometry x="910" y="85" width="30" height="20" as="geometry" />
        </mxCell>
        <mxCell id="90Kco7QvatqlTjlUEmPj-1" style="edgeStyle=orthogonalEdgeStyle;rounded=0;orthogonalLoop=1;jettySize=auto;html=1;exitX=0.5;exitY=0;exitDx=0;exitDy=0;entryX=0.73;entryY=1.036;entryDx=0;entryDy=0;entryPerimeter=0;startArrow=classic;startFill=1;" edge="1" parent="1" source="OZXpx4kWtVFie0x7K6FJ-14" target="OZXpx4kWtVFie0x7K6FJ-97">
          <mxGeometry relative="1" as="geometry" />
        </mxCell>
        <mxCell id="90Kco7QvatqlTjlUEmPj-2" style="edgeStyle=orthogonalEdgeStyle;rounded=0;orthogonalLoop=1;jettySize=auto;html=1;exitX=0.25;exitY=1;exitDx=0;exitDy=0;entryX=0.029;entryY=0.001;entryDx=0;entryDy=0;entryPerimeter=0;startArrow=classic;startFill=1;" edge="1" parent="1" source="OZXpx4kWtVFie0x7K6FJ-97" target="OZXpx4kWtVFie0x7K6FJ-79">
          <mxGeometry relative="1" as="geometry" />
        </mxCell>
      </root>
    </mxGraphModel>
  </diagram>
</mxfile>
